<?xml version="1.0" encoding="UTF-8" standalone="no"?>
<svg width="40px" height="40px" viewBox="0 0 40 40" version="1.1" xmlns="http://www.w3.org/2000/svg" xmlns:xlink="http://www.w3.org/1999/xlink">
    <!-- Generator: sketchtool 39.1 (31720) - http://www.bohemiancoding.com/sketch -->
    <title>E0A90D1E-1BF3-4084-8261-6DDAE25B3B0E</title>
    <desc>Created with sketchtool.</desc>
    <defs></defs>
    <g id="Icon-Library" stroke="none" stroke-width="1" fill="none" fill-rule="evenodd">
        <g transform="translate(-650.000000, -342.000000)" id="Help" fill="#222532">
            <path d="M670,342 C667.23957,342 664.641939,342.520828 662.207031,343.5625 C659.772123,344.604172 657.649749,346.029939 655.839844,347.839844 C654.029939,349.649749 652.604172,351.772123 651.5625,354.207031 C650.520828,356.641939 650,359.23957 650,362 C650,364.76043 650.520828,367.358061 651.5625,369.792969 C652.604172,372.227877 654.029939,374.350251 655.839844,376.160156 C657.649749,377.970061 659.772123,379.395828 662.207031,380.4375 C664.641939,381.479172 667.23957,382 670,382 C672.76043,382 675.358061,381.479172 677.792969,380.4375 C680.227877,379.395828 682.350251,377.970061 684.160156,376.160156 C685.970061,374.350251 687.395828,372.227877 688.4375,369.792969 C689.479172,367.358061 690,364.76043 690,362 C690,359.23957 689.479172,356.641939 688.4375,354.207031 C687.395828,351.772123 685.970061,349.649749 684.160156,347.839844 C682.350251,346.029939 680.227877,344.604172 677.792969,343.5625 C675.358061,342.520828 672.76043,342 670,342 L670,342 Z M670,379.539062 C667.578113,379.539062 665.306,379.076828 663.183594,378.152344 C661.061187,377.22786 659.212247,375.971362 657.636719,374.382812 C656.06119,372.794263 654.811203,370.938813 653.886719,368.816406 C652.962235,366.694 652.5,364.421887 652.5,362 C652.5,359.578113 652.962235,357.306 653.886719,355.183594 C654.811203,353.061187 656.06119,351.212247 657.636719,349.636719 C659.212247,348.06119 661.061187,346.811203 663.183594,345.886719 C665.306,344.962235 667.578113,344.5 670,344.5 C672.421887,344.5 674.694,344.962235 676.816406,345.886719 C678.938813,346.811203 680.787753,348.06119 682.363281,349.636719 C683.93881,351.212247 685.188797,353.061187 686.113281,355.183594 C687.037765,357.306 687.5,359.578113 687.5,362 C687.5,364.421887 687.037765,366.694 686.113281,368.816406 C685.188797,370.938813 683.93881,372.794263 682.363281,374.382812 C680.787753,375.971362 678.938813,377.22786 676.816406,378.152344 C674.694,379.076828 672.421887,379.539062 670,379.539062 L670,379.539062 Z M668.164062,373.25 L671.289062,373.25 L671.289062,370.085938 L668.164062,370.085938 L668.164062,373.25 Z M669.960938,350.75 C669.049475,350.75 668.21615,350.867186 667.460938,351.101562 C666.705725,351.335939 666.028649,351.700518 665.429688,352.195312 C664.830726,352.690107 664.388022,353.380204 664.101562,354.265625 C663.815103,355.151046 663.684896,355.997392 663.710938,356.804688 L663.75,356.921875 L666.640625,356.921875 C666.640625,356.427081 666.718749,355.880211 666.875,355.28125 C667.031251,354.682289 667.278644,354.265626 667.617188,354.03125 C667.929689,353.770832 668.281248,353.575521 668.671875,353.445312 C669.062502,353.315104 669.492185,353.25 669.960938,353.25 C670.507815,353.25 670.983071,353.328124 671.386719,353.484375 C671.790367,353.640626 672.135415,353.861978 672.421875,354.148438 C672.708335,354.434897 672.923176,354.786456 673.066406,355.203125 C673.209636,355.619794 673.28125,356.088539 673.28125,356.609375 C673.28125,357.078127 673.229167,357.5013 673.125,357.878906 C673.020833,358.256512 672.864584,358.614582 672.65625,358.953125 C672.447916,359.265627 672.16146,359.649737 671.796875,360.105469 C671.43229,360.5612 671.002607,361.088539 670.507812,361.6875 C669.986977,362.156252 669.563804,362.579425 669.238281,362.957031 C668.912759,363.334637 668.697917,363.666665 668.59375,363.953125 C668.463541,364.239585 668.365886,364.636716 668.300781,365.144531 C668.235677,365.652346 668.203125,366.27083 668.203125,367 L671.210938,367 C671.210938,366.557289 671.223958,366.160158 671.25,365.808594 C671.276042,365.457029 671.315104,365.177084 671.367188,364.96875 C671.419271,364.760416 671.529947,364.532553 671.699219,364.285156 C671.86849,364.037759 672.096353,363.770835 672.382812,363.484375 C672.955732,362.911455 673.483071,362.345055 673.964844,361.785156 C674.446617,361.225258 674.86979,360.684898 675.234375,360.164062 C675.572918,359.617185 675.833332,359.044274 676.015625,358.445312 C676.197918,357.846351 676.289062,357.208337 676.289062,356.53125 C676.289062,355.619787 676.152345,354.805993 675.878906,354.089844 C675.605467,353.373694 675.195315,352.768232 674.648438,352.273438 C674.075518,351.752602 673.404952,351.368491 672.636719,351.121094 C671.868486,350.873697 670.976568,350.75 669.960938,350.75 L669.960938,350.75 Z"></path>
        </g>
    </g>
</svg>