<svg width="37" height="34" viewBox="0 0 37 34" xmlns="http://www.w3.org/2000/svg">
  <path d="M0 0v34h37V0H0zm13.57 16.224c0 2.046-.713 3.245-2.284 3.668 1.643.635 2.285 1.764 2.285 4.232v3.598l-6.356-.07v-4.656c0-.917-1.07-1.058-1.928-1.34V18.27c.857-.282 1.928-.565 1.928-1.27v-4.938h6.357v4.162zm0-5.22H7.144V6.207h6.428v4.797zm9.36 17.212c-5.716 0-8.43-2.963-8.43-6.7v-1.13h6.357v.494c0 1.2.643 2.045 1.857 2.045 1.143 0 1.715-.493 1.715-1.41 0-2.47-9.716-2.046-9.716-9.03 0-3.738 2.43-6.983 8.43-6.983 5.427 0 8.07 2.963 8.07 6.7v1.27h-6.357v-.704c0-.988-.5-1.975-1.714-1.975-.93 0-1.5.493-1.5 1.34 0 2.68 9.786 2.045 9.786 8.958 0 3.74-2.573 7.126-8.5 7.126z" fill="#FFFFFF" fill-rule="evenodd"/>
</svg>
