<svg width="166" height="34" viewBox="0 0 166 34" xmlns="http://www.w3.org/2000/svg">
  <path d="M49.758 9.055v3.275h-4.426V9.055h4.426zm0 4.74v11.778h-4.426v-11.78h4.426zm5.832 1.81c.492-.766.984-1.253 1.616-1.602.633-.348 1.265-.488 2.038-.488.35 0 .562.07.703.14v3.693h-.07c-1.336-.21-2.32-.07-3.022.488-.703.558-1.054 1.534-1.054 2.858v4.81h-4.42v-11.71h4.22v1.812zm8.432 9.898c-.773-.348-1.475-.767-2.038-1.324-.562-.56-.983-1.19-1.335-1.96-.36-.77-.5-1.61-.5-2.51 0-.91.14-1.74.49-2.51.35-.77.77-1.4 1.33-2.02.56-.63 1.26-.98 2.04-1.33.77-.35 1.68-.49 2.67-.49.98 0 1.89.14 2.67.48.77.35 1.47.77 2.04 1.32.56.55.98 1.25 1.26 2.02.28.76.42 1.6.42 2.51 0 .9-.14 1.74-.42 2.51-.28.76-.71 1.39-1.27 1.95-.57.55-1.27.97-2.04 1.32-.78.35-1.69.49-2.67.49-.99 0-1.9-.14-2.67-.49zm4.216-3.345c.35-.628.492-1.394.492-2.44 0-1.045-.14-1.812-.492-2.44-.35-.626-.843-.905-1.546-.905-.702 0-1.194.28-1.546.906-.35.62-.49 1.39-.49 2.43s.14 1.81.49 2.44c.352.62.844.9 1.546.9.703 0 1.195-.28 1.546-.91zm10.26-6.69c.49-.63 1.053-1.116 1.615-1.465.562-.348 1.335-.488 2.178-.488 1.41 0 2.46.418 3.1 1.255.63.836 1.06 1.95 1.06 3.275v7.667h-4.43v-6.55c0-.63-.14-1.117-.42-1.465-.28-.35-.7-.558-1.26-.558s-.98.2-1.33.62c-.35.42-.49.97-.49 1.6v6.34h-4.29V13.79h4.22l.07 1.673zm13.49 10.174c-.914-.21-1.757-.557-2.46-1.045-.702-.488-1.264-1.045-1.616-1.742-.35-.697-.632-1.534-.632-2.51h4.99c.07.697.35 1.185.842 1.464.492.27 1.124.48 1.967.48.21 0 .49 0 .7-.07.21-.07.49-.14.7-.21.21-.07.35-.28.49-.42.14-.14.21-.42.21-.63 0-.21-.07-.49-.21-.63-.14-.14-.35-.35-.64-.42-.28-.07-.56-.21-.99-.35-.42-.14-.85-.21-1.34-.35-.71-.14-1.41-.35-2.18-.63-.78-.28-1.41-.56-1.97-.91s-1.06-.84-1.48-1.47c-.42-.63-.57-1.33-.57-2.23 0-.98.21-1.74.56-2.44s.84-1.19 1.48-1.6c.63-.42 1.33-.7 2.17-.91.84-.21 1.75-.28 2.67-.28.84 0 1.68.07 2.46.28.77.21 1.54.48 2.1.9.56.42 1.12.9 1.47 1.6.35.69.562 1.39.562 2.3h-4.84c-.07-.42-.28-.84-.635-1.05-.35-.21-.84-.42-1.47-.42-.564 0-.986.14-1.337.34-.35.21-.49.49-.49.83 0 .28.07.42.28.63.214.21.425.28.78.41.35.14.77.21 1.26.35.49.14 1.05.21 1.683.35.7.14 1.4.35 2.032.626.64.28 1.27.56 1.83.976.57.42.99.906 1.27 1.464.28.56.49 1.33.49 2.23 0 .91-.21 1.748-.56 2.37-.35.63-.91 1.26-1.547 1.747s-1.405.84-2.32 1.05c-.912.21-1.825.35-2.81.35-1.053-.14-2.04-.21-2.95-.49zm14.545-.14c-.773-.347-1.476-.766-2.038-1.323-.562-.56-.984-1.19-1.335-1.96-.35-.77-.492-1.61-.492-2.51 0-.91.14-1.74.492-2.51.35-.77.773-1.4 1.335-2.02.562-.63 1.265-.98 2.038-1.33.773-.35 1.686-.49 2.67-.49s1.897.14 2.67.48c.773.35 1.476.77 2.038 1.32.57.55.99 1.25 1.27 2.02.28.76.42 1.6.42 2.51 0 .9-.14 1.74-.42 2.51-.28.76-.7 1.39-1.26 1.95-.56.55-1.26.97-2.03 1.32-.77.35-1.68.49-2.67.49s-1.89-.14-2.67-.49zm4.145-3.344c.352-.628.492-1.394.492-2.44 0-1.045-.14-1.812-.492-2.44-.35-.626-.843-.905-1.545-.905-.703 0-1.195.28-1.546.906-.352.62-.492 1.39-.492 2.43s.14 1.81.492 2.44c.35.62.843.9 1.546.9.702 0 1.194-.28 1.545-.91zm13.982 1.952c-.49.626-1.053 1.114-1.615 1.393-.562.28-1.335.488-2.108.488-.702 0-1.335-.13-1.897-.34-.562-.21-.984-.55-1.335-.9-.35-.35-.632-.9-.773-1.46-.14-.56-.28-1.18-.28-1.88v-7.6h4.426v6.55c0 1.26.562 1.89 1.616 1.89.562 0 1.054-.21 1.335-.55.28-.35.49-.9.49-1.53V13.8h4.42v11.78h-4.22v-1.47h-.07zm10.05-8.504c.49-.767.983-1.254 1.615-1.603.633-.348 1.265-.488 2.038-.488.35 0 .562.07.703.14v3.693h-.07c-1.336-.21-2.32-.07-3.022.488-.703.558-1.054 1.534-1.054 2.858v4.81h-4.497v-11.71h4.216l.07 1.812zm8.43 9.897c-.772-.348-1.474-.767-2.037-1.324-.562-.56-1.054-1.19-1.335-1.96-.28-.77-.492-1.61-.492-2.51 0-.91.14-1.74.492-2.51s.773-1.4 1.335-2.02c.563-.63 1.265-.98 2.038-1.33.78-.35 1.69-.49 2.67-.49.85 0 1.62.14 2.32.34.71.21 1.27.56 1.83.98.56.42.92.9 1.2 1.46.28.55.5 1.18.57 1.88h-4.22c-.14-.56-.35-.98-.56-1.26-.21-.28-.63-.42-1.12-.42-.7 0-1.19.28-1.54.83-.35.55-.49 1.32-.49 2.37 0 .97.14 1.74.5 2.3.35.55.84.83 1.55.83.56 0 .99-.14 1.2-.49.21-.35.42-.84.5-1.54h4.215c0 .7-.14 1.392-.42 2.02-.28.63-.702 1.184-1.194 1.602-.49.42-1.12.837-1.89 1.115-.777.28-1.55.42-2.46.42-.917.14-1.83 0-2.6-.35zm12.86 0c-.773-.28-1.476-.767-2.038-1.324-.562-.56-1.054-1.19-1.335-1.96-.28-.77-.492-1.61-.492-2.51 0-.91.14-1.74.492-2.51.35-.77.773-1.4 1.335-2.02.562-.63 1.194-.98 2.038-1.33.843-.35 1.616-.49 2.6-.49.983 0 1.756.14 2.46.41.7.28 1.334.7 1.896 1.18.703.69 1.265 1.46 1.616 2.51.35 1.04.492 2.09.492 3.27h-8.643c.15.7.36 1.25.78 1.6.42.35.92.56 1.55.56.78 0 1.34-.28 1.69-.91h4.29c-.14.55-.35 1.04-.77 1.53-.42.48-.91.9-1.47 1.32-.56.35-1.12.63-1.75.77-.63.14-1.33.21-2.03.21-.98.07-1.89-.07-2.67-.35zm1.124-8.573c-.35.35-.562.906-.703 1.534h4.08c-.07-.697-.28-1.185-.63-1.534-.35-.348-.77-.557-1.33-.557s-1.05.21-1.4.557zM0 0v34h37V0H0zm13.57 16.224c0 2.046-.713 3.245-2.284 3.668 1.643.635 2.285 1.764 2.285 4.232v3.598l-6.35-.07v-4.656c0-.917-1.07-1.058-1.93-1.34V18.27c.86-.282 1.93-.565 1.93-1.27v-4.938h6.36v4.162zm0-5.22H7.144V6.207h6.428v4.797zm9.36 17.212c-5.716 0-8.43-2.963-8.43-6.7v-1.13h6.357v.494c0 1.2.643 2.045 1.857 2.045 1.143 0 1.715-.493 1.715-1.41 0-2.47-9.72-2.046-9.72-9.03 0-3.738 2.43-6.983 8.43-6.983 5.42 0 8.07 2.963 8.07 6.7v1.27h-6.36v-.704c0-.988-.5-1.975-1.72-1.975-.93 0-1.5.493-1.5 1.34 0 2.68 9.78 2.045 9.78 8.958 0 3.74-2.58 7.13-8.5 7.13z" fill="#FFFFFF" fill-rule="evenodd"/>
</svg>
