<?xml version="1.0" encoding="UTF-8" standalone="no"?>
<svg width="40px" height="40px" viewBox="0 0 40 40" version="1.1" xmlns="http://www.w3.org/2000/svg" xmlns:xlink="http://www.w3.org/1999/xlink">
    <!-- Generator: sketchtool 39.1 (31720) - http://www.bohemiancoding.com/sketch -->
    <title>E80D3647-CFE4-42C5-9A16-F2D4CFC5E435</title>
    <desc>Created with sketchtool.</desc>
    <defs></defs>
    <g id="Icon-Library" stroke="none" stroke-width="1" fill="none" fill-rule="evenodd">
        <g transform="translate(-560.000000, -342.000000)" id="User" fill="#222532">
            <path d="M580,344.47858 C581.041672,344.47858 582.089838,344.678672 583.144531,345.078861 C584.199224,345.479051 585.136715,345.982507 585.957031,346.589246 C586.777348,347.195985 587.447914,347.860806 587.96875,348.583729 C588.489586,349.306651 588.75,350.003745 588.75,350.675031 L588.75,356.871481 C588.75,358.05914 588.470055,359.601783 587.910156,361.499455 C587.350258,363.397127 586.393236,364.862315 585.039062,365.895062 C584.700519,366.153249 584.446615,366.482432 584.277344,366.882621 C584.108072,367.282811 584.049479,367.702358 584.101562,368.141275 C584.153646,368.580193 584.309895,368.973922 584.570312,369.322474 C584.83073,369.671026 585.156248,369.935663 585.546875,370.116394 L596.445312,375.228465 C596.471354,375.228465 596.647134,375.312375 596.972656,375.480196 C597.298179,375.648018 597.460938,376.067565 597.460938,376.73885 L597.460938,379.139975 L562.5,379.178703 L562.5,376.661395 C562.5,376.145021 562.636717,375.79002 562.910156,375.59638 C563.183595,375.40274 563.398437,375.280103 563.554688,375.228465 L574.53125,370.077666 C574.921877,369.896935 575.240884,369.632298 575.488281,369.283746 C575.735678,368.935194 575.898437,368.554374 575.976562,368.141275 C576.028646,367.702358 575.970053,367.282811 575.800781,366.882621 C575.63151,366.482432 575.377606,366.153249 575.039062,365.895062 C573.736973,364.862315 572.779951,363.403582 572.167969,361.518819 C571.555987,359.634056 571.25,358.084959 571.25,356.871481 L571.25,350.675031 C571.25,350.029564 571.503904,349.345379 572.011719,348.622456 C572.519534,347.899534 573.1901,347.228258 574.023438,346.60861 C574.856775,345.988962 575.794266,345.479051 576.835938,345.078861 C577.877609,344.678672 578.932286,344.47858 580,344.47858 L580,344.47858 Z M580,342 C578.619785,342 577.252611,342.258183 575.898438,342.774556 C574.544264,343.29093 573.339849,343.962205 572.285156,344.788403 C571.230463,345.6146 570.377607,346.544058 569.726562,347.576805 C569.075518,348.609552 568.75,349.642284 568.75,350.675031 L568.75,356.871481 C568.75,357.542767 568.828124,358.362497 568.984375,359.330697 C569.140626,360.298898 569.40755,361.292901 569.785156,362.312739 C570.162762,363.332577 570.651039,364.333035 571.25,365.314145 C571.848961,366.295254 572.591141,367.134349 573.476562,367.831453 L562.5,372.982252 C562.5,372.982252 562.083337,373.221071 561.25,373.698717 C560.416663,374.176362 560,374.750819 560,375.422104 L560,379.178703 C560,379.849988 560.240883,380.424445 560.722656,380.90209 C561.204429,381.379736 561.796871,381.618555 562.5,381.618555 L597.5,381.618555 C598.177087,381.618555 598.756508,381.379736 599.238281,380.90209 C599.720054,380.424445 599.960938,379.849988 599.960938,379.178703 L599.960938,375.422104 C599.960938,374.699182 599.550785,374.111816 598.730469,373.659989 C597.910152,373.208162 597.5,372.982252 597.5,372.982252 L586.601562,367.831453 C587.460942,367.160167 588.190101,366.353346 588.789062,365.410964 C589.388024,364.468583 589.86979,363.487488 590.234375,362.46765 C590.59896,361.447813 590.859374,360.447354 591.015625,359.466245 C591.171876,358.485135 591.25,357.620223 591.25,356.871481 L591.25,350.675031 C591.25,349.642284 590.917972,348.609552 590.253906,347.576805 C589.58984,346.544058 588.730474,345.6146 587.675781,344.788403 C586.621088,343.962205 585.423184,343.29093 584.082031,342.774556 C582.740879,342.258183 581.380215,342 580,342 L580,342 Z"></path>
        </g>
    </g>
</svg>